<?xml version="1.0" standalone="no"?>
<!DOCTYPE svg PUBLIC "-//W3C//DTD SVG 1.1//EN" "http://www.w3.org/Graphics/SVG/1.1/DTD/svg11.dtd" >
<svg xmlns="http://www.w3.org/2000/svg" xmlns:xlink="http://www.w3.org/1999/xlink" version="1.1">
<metadata></metadata>
<defs>
<font id="thewitchermedium" horiz-adv-x="1148" >
<font-face units-per-em="2048" ascent="1597" descent="-451" />
<missing-glyph horiz-adv-x="614" />
<glyph horiz-adv-x="0" />
<glyph unicode="&#xd;" horiz-adv-x="681" />
<glyph unicode=" "  horiz-adv-x="614" />
<glyph unicode="&#x09;" horiz-adv-x="614" />
<glyph unicode="&#xa0;" horiz-adv-x="614" />
<glyph unicode="!" horiz-adv-x="571" d="M125 1317h129h238v-12v-33v-101v-100v-35v-12v-6v-17v-49v-51v-16v-15v-20q4 -125 4 -416l-111 64l-131 69v312v6v186v100q0 10 -1 23.5t-1 25t-3 23.5t-7 22.5t-14.5 19.5t-24 16.5t-33.5 11.5t-45 4zM254 0v240h240v-240h-240z" />
<glyph unicode="&#x22;" horiz-adv-x="667" d="M61 1260v40v17l222 2v-4v-12v-41q0 -57 1 -126t1 -126v-43v-15l-222 -2v17v41q0 57 -1 125.5t-1 126.5zM369 1133.5v126.5v40v17l221 2v-16v-41v-126t2 -126v-43v-15l-221 -2v17v41q-2 57 -2 125.5z" />
<glyph unicode="#" horiz-adv-x="1398" d="M180 506h15h15h19h95v244q-16 0 -93 -2h-19h-17h-13l-2 188h15h15h19h97v160v36.5v37t-3.5 37t-7.5 33.5t-12 28.5t-19.5 24t-28.5 17.5t-40 9l111 -2h206v-19v-51v-151v-152v-6h220h86h80v104v279h204v-25v-63v-191v-104q2 0 21 2h129h15h10h10h14v-188h-12h-10.5h-11.5 h-15h-129h-2h-2h-2h-2h-2h-3h-2h-2h-4v-29v-94v-97v-22h21h129h14h10h11h14v-182h-12h-10.5h-11.5h-15h-129h-6h-7.5h-5.5v-678l-92 121l-114 131v426q-29 -2 -44 -2h-122h-217v-328h-213q0 164 2 326h-93h-19h-17h-13zM532 508h218h168v244q-41 -2 -166 -2h-220v-62v-24 v-21v-33v-102z" />
<glyph unicode="$" d="M123 2v215h12h29h47.5h44.5h44.5h37.5q92 10 166 35q0 195 2 389h-215h-59.5h-45.5h-28h-11v213q0 14 3 23q29 182 114.5 277t245.5 130v123h186v-96q82 4 193 4l-2 -230q-111 4 -193 -4l-2 -213h236h58.5h45.5h29h10l-2 -229q-6 -113 -44 -217.5t-124 -202.5t-213 -153 v-158h-186v104q-6 -2 -15 -2q-41 -6 -98 -8h-12h-29h-47.5h-44.5h-45h-47h-29h-12zM387 870q117 -2 121 -2v164q-92 -51 -121 -162zM690 360q104 102 141 281h-139q-2 -139 -2 -281z" />
<glyph unicode="%" horiz-adv-x="1363" d="M76 -12l1024 1349h188l-1012 -1351zM254 1027q0 85 60.5 144.5t145.5 59.5t144.5 -59.5t59.5 -144.5t-59.5 -145.5t-144.5 -60.5t-145.5 60.5t-60.5 145.5zM367 1026q0 -39 27.5 -65.5t65.5 -26.5t65.5 26.5t27.5 65.5t-27.5 66.5t-65.5 27.5t-65.5 -27.5t-27.5 -66.5z M784 353q0 85 59.5 145.5t144.5 60.5t145.5 -60.5t60.5 -145.5t-60.5 -144t-145.5 -59t-144.5 59t-59.5 144zM895 353q0 -38 27.5 -65.5t65.5 -27.5t65.5 27.5t27.5 65.5t-27.5 65.5t-65.5 27.5t-65.5 -27.5t-27.5 -65.5z" />
<glyph unicode="&#x26;" horiz-adv-x="1353" d="M68 0l477 686l-449 635h223v-2h33h41h282.5h282.5h27h2h240l-142 -205l-299 -436l490 -676l-174 -2v-2h-8h-27h-2h-90h-10q-66 0 -140.5 1t-160.5 1h-162h-142h-41h-26h-8h-25h-27h-10v2zM459 203h93h142h191l-215 307zM469 1114l190 -264l185 264h-2h-2h-2h-2h-2h-3h-2 h-2h-2h-2h-2h-2h-2h-2h-2h-2h-2h-2h-2h-2h-2h-2h-2h-2h-2h-2h-3h-2h-2h-2h-2h-2h-2h-2h-4h-2h-2h-2h-2h-2h-2h-2h-2h-2h-2h-2h-3h-2h-2h-2h-2h-2h-2h-2h-2h-2h-2h-2h-2h-2h-2h-2h-2h-2h-2h-2h-2h-3h-2h-2h-2h-2h-2h-2h-2h-2h-2h-2h-2h-2h-2h-207z" />
<glyph unicode="'" horiz-adv-x="342" d="M68 938v498h196v-498h-196z" />
<glyph unicode="(" horiz-adv-x="1695" d="M35 2l792 1397l121 -217l-547 -969q432 -2 865 -4l-385 696l118 211l621 -1116h-143h-97l-1097 2l-2 -2z" />
<glyph unicode=")" horiz-adv-x="1722" d="M37 1413h242l1116 2h250l-801 -1419l-123 219l557 993q-440 -2 -881 -6l394 -706l-121 -213z" />
<glyph unicode="*" horiz-adv-x="677" d="M199 1042l118 80l2 144l113 -88l137 41l-49 -134l82 -116l-143 6l-86 -115l-39 137z" />
<glyph unicode="+" horiz-adv-x="1157" d="M63 795v143h11h32h57h58h238v8v6v150q2 18 1 36.5t-1 37t-3 36t-7.5 34t-14.5 29.5t-23.5 23.5t-34 16.5t-44.5 8l127 -2h239v-18v-50v-151v-150v-12h224h58.5h55.5h33h10v-143h-10h-33h-56.5h-57.5h-136h-88v-23v-76v-24v-21v-32q2 -186 2 -621l-108 94l-133 105v465v10 v121h-238h-58.5h-56.5h-30h-13z" />
<glyph unicode="," horiz-adv-x="548" d="M80 -260q0 2 6 6q238 162 213 381q-63 8 -94 63q-29 47 -14.5 100.5t61.5 81t99 13.5t81 -61q12 -20 17 -43q80 -236 -117 -426q-74 -72 -211 -111q-43 -12 -41 -4z" />
<glyph unicode="-" d="M55 537v143h11h32h56.5h58.5h350.5h347.5h60.5h56.5h31h12v-143h-12h-31h-56.5h-60.5h-348h-350h-58.5h-56.5h-32h-11z" />
<glyph unicode="." horiz-adv-x="468" d="M152 2v240h239v-240h-239z" />
<glyph unicode="/" horiz-adv-x="870" d="M6 -250l574 1665l213 -2l-574 -1667z" />
<glyph unicode="0" horiz-adv-x="1130" d="M147 375v2v6v10v31v92v92v31v12v2v4q0 4 3 11v28.5v28.5v14q2 10 1 27.5t-1 38t4 49.5q10 133 57 222t135 141.5t202 75t277 24.5h60h168v-10v-29v-86v-88v-29v-10v-10v-27v-35.5v-42v-43v-37.5v-26v-10v-3v-8v-20q-2 -27 -2 -59.5t-2 -59.5v-20v-9q-6 -82 -27 -160.5 t-62.5 -160.5t-103 -145.5t-156 -112.5t-213.5 -66q-45 -8 -96 -8h-10h-27l-80 -2h-79l-27 -2h-10q0 88 -2 176v6v7v10q-2 35 -4 73l-2 74v25q0 4 -3 6zM383 385q0 -4 2 -8v-25q2 -33 2 -71q2 -27 2 -58q160 25 266.5 101.5t155.5 234.5l4 51q4 68 6 80q0 27 1 59.5t1 59.5 v20v15v26v37v43.5t1 42t1 37.5v25v20v12q-100 0 -171.5 -9t-119 -31.5t-76 -48t-44 -70.5t-21.5 -87t-8 -108v-14v-29v-15t-1 -13.5t-1 -9.5v-5v-8v-31v-92v-92v-31v-6v-2z" />
<glyph unicode="1" horiz-adv-x="919" d="M63 500v6v18v41v2v11v30q2 27 3 49h2v2h-2q6 150 36.5 247.5t110.5 185.5q78 84 233 168q61 33 200.5 101.5t195.5 92.5l-51 -156v-4v-10v-41l-3 -147q-2 -201 -4 -442.5t-4 -444.5v-4v-2v-4v-4v-2v-5v-2v-4v-2v-4v-2v-4v-2v-2v-4v-2v-2v-2v-2v-4v-3v-2v-2v-2v-2v-2v-2 v-2v-2v-2v-2v-2v-2v-2v-2v-2v-2v-2v-2v-2v-3v-2v-2v-2v-2v-2v-2v-2v-2v-2v-2v-2v-2v-2v-2v-2v-2v-2v-2v-2v-5v-40q-2 -12 -2 -15l-235 2v15v41l2 145q2 201 4 444q2 246 2 396q-82 -45 -139 -109q-94 -104 -111 -297v-12v-55v-54v-18v-6h-238zM63 657h3v2z" />
<glyph unicode="2" horiz-adv-x="1007" d="M104 707l37 247h2q53 172 178 255t357 114q16 -2 39 -2h192v-8v-328v-178v-258q-53 2 -106 2q-4 -2 -10 0q-61 4 -132 -23.5t-146 -103.5t-116 -186h133q78 0 147 -1t128 -1h90h25h8v-236h-8h-25h-90h-128h-146.5h-146.5h-128h-90h-25h-8l4 143q2 45 11 90 q14 90 48.5 172t95 157t158 130.5t220.5 79.5v37v178v30.5v29.5v20v12v19q-252 -12 -328 -260l-27 -121v-10h-2h-211z" />
<glyph unicode="3" horiz-adv-x="1054" d="M152 4l2 234h10h7h8h11h80h30.5h24h25.5q317 76 387 405h-168q-152 2 -278 2h-53.5h-38.5h-27h-8v227h10h25h40.5h51.5h215q147 43 205 215h-160h-272h-47.5h-43.5h-24h-10v234h10h24h43h48h271h273h46.5h43.5h25h8v-236h-2q-39 -143 -86 -213h46.5h37.5h27h8v-229h-2 q-6 -104 -39 -197.5t-98.5 -182.5t-180 -156.5t-268.5 -102.5h-2v-2h-4h-31l-2 2h-80h-82h-10h-7h-9h-10z" />
<glyph unicode="4" horiz-adv-x="1024" d="M25 1317q-18 2 48 2h68h236v-21v-51v-153v-156v-51v-17h28.5h36.5q92 -2 201 -2h2h4h2h2h2h2h2h3h2h2h2h4h2h2h2h2h2h2h2h2h2h2h2h2h2h2h2h3v45v168v242h239v-20v-56v-166v-168v-55v-20v-11v-28v-82v-84v-29v-22v-37q2 -205 2 -688l-108 106l-133 115v516v10v37h-3h-2h-2 h-2h-2h-2h-2h-2h-2h-2h-2h-2h-2h-2h-2h-2h-2h-2h-2h-2h-2h-3h-2h-2h-2h-2h-2h-2h-4h-203h-36.5h-26.5h-236v10v287v156q0 10 1 48t0 52t-7 43t-17.5 42t-35 24.5t-57.5 13.5z" />
<glyph unicode="5" d="M23 1317l118 2h236h2h2h2h2h2h2h2h2h2h2h2h2h2h3h2h2h2h2h2h2h2h2h2h2h2h2h2h2h2h2h2h2h2h2h3h2h2h2h2h2h2h2h2h2h2h2h2h2h2h2h2h2h2h2h2h3h2h2h2h2h2h2h2h2h2h2h2h4q117 -2 213 -2h36.5h33.5h20h6v-234h-6h-20h-32.5h-37.5h-213h-141v-145v-51v-17h4h36.5h45.5 q113 -2 248 -2h247h47.5h34.5h23h8v-229h-2q-4 -82 -25.5 -160t-66.5 -155.5t-108.5 -140t-162 -108.5t-219.5 -65q-41 -6 -98 -8h-12h-29h-47.5h-44.5h-45h-47h-29h-12v215h12h29h47.5h44.5h44.5h37.5q199 20 324.5 118.5t168.5 305.5h-120h-248h-47.5h-34.5h-25h-6h-209 v10v287v156v48t-1 52t-7 43t-17.5 42t-35 24.5t-57.5 13.5z" />
<glyph unicode="6" horiz-adv-x="1093" d="M115 444v14.5v12.5v10v2v2v7v18q2 14 2 29.5v29.5v32.5v29.5v8v14v4q6 82 25.5 160t61.5 160t103.5 146.5t154.5 114.5t210 69q47 8 96 8l10 2h27q37 0 80 1t80 3h24h10l7 -213h-11h-26q-35 -2 -78 -2q-49 -2 -62 -2q-199 -25 -324.5 -123t-164.5 -305q35 0 217 2h4h4h2 h4h2h5h4h2h4h2h2h4h2h4h2h4h2h2h4h2l3 2h4h2h2h4h2h2h2h2h4h2h2h2h2h2h2h5h2h2h2h2h2h2h2h2h2h2h2h2h2h2h2h2h2h2h2h2h3h2h2h2h2h2h2h2h2h2h2h2h2h2h2h2h2h2h2h2h2h3h2h2h2h2h2h2h2h2h2h2h2h2h2h2h2h2h2h2h2h2h3h2h2h2h2h2l2 2h2h2h2h2h2h2h2h2h2h2h2h2h2h2h3h2h2h2h2h2h2h2 h2h2h2h2h2h4h101q16 0 28 2h2h6h2v-6q20 -115 15 -205q-8 -133 -53 -222t-132.5 -142.5t-200 -77t-276.5 -27.5v-2h-57l-176 -2v2v8v29q0 39 -2 86v86v29v8v2l-2 10v27v78v43t-2 36zM350 368.5q0 -42.5 2 -79.5v-27v-8v-10v-13q215 2 310 56.5t120 167.5q-25 -2 -223 -4 l-209 -2v-3v-77.5z" />
<glyph unicode="7" horiz-adv-x="1304" d="M68 0l776 1114h-2h-2h-2h-2h-2h-3h-2h-2h-2h-2h-2h-2h-2h-2h-2h-2h-2h-2h-2h-2h-2h-2h-2h-2h-2h-2h-3h-2h-2h-2h-2h-2h-2h-2h-4h-2h-2h-2h-2h-2h-2h-2h-2h-2h-2h-2h-3h-2h-2h-2h-2h-2h-2h-2h-2h-2h-2h-2h-2h-2h-2h-2h-2h-2h-2h-2h-2h-3h-2h-2h-2h-2h-2h-2h-2h-2h-2h-2h-2 h-2h-2h-215l129 -188l-103 -160l-391 555h223v-2h33h41h282.5h282.5h27h2h240l-142 -205l-763 -1112z" />
<glyph unicode="8" horiz-adv-x="1136" d="M147 369v6v2v4v12v31v92v92v31v10v4v2v11q2 14 2.5 29.5t0.5 29.5v12v2q2 10 1 27.5t-1 38t4 49.5q10 133 57 222t135 141.5t202 75t277 24.5h60h176v-10v-29v-86v-88v-29v-10v-10v-27v-35.5v-42v-43t-2 -37.5v-26v-10v-3v-2v-6v-20q0 -27 -1 -59.5t-1 -59.5v-5t-2 -5h2 q0 -6 -2 -15v-4q-6 -82 -26.5 -159.5t-64.5 -159.5t-105.5 -146.5t-157 -113.5t-214.5 -66q-45 -8 -96 -8h-10h-27l-80 -2h-79l-27 -2h-10l-2 166v10v23l-4 73l-2 74q0 14 -3 25zM383 377q2 -10 2 -25l2 -71q2 -29 2 -58q176 29 288.5 127t153.5 291h-219h-130h-99v-2v-31 v-92v-92v-31v-6v-4v-6zM387 870q170 -2 225 -2h213v2v37v43.5v42v37.5v25v10v10v12q-217 0 -313 -53t-125 -164z" />
<glyph unicode="9" horiz-adv-x="1136" d="M154 854q10 133 57 222t135 141.5t202 75t277 24.5h60h176v-10v-29v-86v-88v-29v-10v-10v-27v-35.5v-42v-43t-2 -37.5v-26v-10v-3v-2v-6v-20q0 -27 -1 -59.5t-1 -59.5v-5t-2 -5h2q0 -6 -2 -15v-4q-6 -82 -26.5 -159.5t-64.5 -159.5t-105.5 -146.5t-157 -113.5t-214.5 -66 q-45 -8 -96 -8h-10h-27l-80 -2h-79l-27 -2h-10l-2 215h10q10 2 27 2h79h62q199 23 326.5 120t170.5 306h-219h-307h-56.5h-43.5h-29h-2h-6h-2v6q-20 115 -12 207zM387 870q170 -2 225 -2h213v2v37v43.5v42v37.5v25v10v10v12q-217 0 -313 -53t-125 -164z" />
<glyph unicode=":" horiz-adv-x="473" d="M152 2v240h239v-240h-239zM156 618v240h239v-240h-239z" />
<glyph unicode=";" horiz-adv-x="548" d="M80 -260q0 2 6 6q238 162 213 381q-63 8 -94 63q-29 47 -14.5 100.5t61.5 81t99 13.5t81 -61q12 -20 17 -43q80 -236 -117 -426q-74 -72 -211 -111q-43 -12 -41 -4zM186 614v240h242v-240h-242z" />
<glyph unicode="&#x3c;" horiz-adv-x="1177" d="M104 678l154 82l832 -481l-5 -175zM305 797l797 428l-2 -168l-645 -346z" />
<glyph unicode="=" horiz-adv-x="1159" d="M63 371v143h11h32h57h58h350.5h350.5h58.5h55.5h33h10v-143h-10h-33h-56.5h-57.5h-350.5h-350.5h-58.5h-56.5h-30h-13zM66 784v144h12h33h54.5h59.5h348.5h350.5h60.5h53.5h33h12v-144h-12h-33h-54.5h-59.5h-349.5h-349.5h-60.5h-53.5h-33h-12z" />
<glyph unicode="&#x3e;" horiz-adv-x="1204" d="M139 1077v174l987 -553l-151 -86zM143 303l635 356l150 -81l-783 -443z" />
<glyph unicode="?" horiz-adv-x="851" d="M111 1202v160h8h22h68h67h23h8v-2q29 0 53 -4q106 -16 187.5 -63.5t127.5 -115t70.5 -139t28.5 -147.5v-170h-6h-6h-5h-9h-70h-217q-111 -2 -144 -2q14 -96 70.5 -148.5t187.5 -56.5l-2 -156q-215 6 -306 82t-117 273q-2 6 -3 16l-2 2v158h7h9h11h72h215h145 q-31 154 -120 226.5t-228 86.5h-47h-68h-22h-8zM389 118q0 50 36 85t85 35t85 -35t36 -85t-36 -85t-85 -35t-85 35t-36 85z" />
<glyph unicode="@" horiz-adv-x="1769" d="M125 391q-23 291 119 527q158 262 454 339q371 96 643 -67q117 -70 199 -178.5t121 -241.5q39 -125 29.5 -251t-64.5 -224q-63 -115 -175 -173.5t-257 -47.5q-23 0 -47 6q-20 4 -43 12q-18 4 -37 10l-6 2q-10 -8 -25 -14q-199 -78 -352 10q-141 82 -176 254 q-33 168 59 318q100 166 310 229q53 16 116 14q43 -2 117 -14q67 -8 135 -18v-9q-2 -10 -4 -24q-4 -37 -12 -88v-2v-4v-2l-2 -2v-4v-3v-2v-2v-2l-2 -4v-2v-2v-2v-2v-2l-2 -4v-2v-2v-2v-2v-2v-2l-2 -2v-2v-3v-2v-2v-2v-2v-2l-2 -2v-2v-2v-2v-2v-2v-2h-2v-2v-2v-2v-2v-2v-2v-2 l-3 -2v-3v-2v-2v-2v-2v-2l-2 -2v-2v-2v-2v-2v-2v-2l-2 -2v-2v-2v-2v-2v-2v-2v-3l-2 -2v-2v-2v-2v-2v-2v-2l-2 -2v-2v-2v-2v-2v-2v-2l-2 -2v-2v-2v-2v-2v-2v-3v-2h-2v-2v-2v-2v-2v-2v-2l-2 -2v-2v-2v-2v-2v-2v-2v-2l-2 -2v-2v-2v-2v-2v-3v-2l-2 -2v-2v-2v-2v-2v-2v-2v-2 l-2 -2v-2v-2v-2v-2v-2l-2 -2v-4q-23 -166 -31 -228l25 -6l20 -2q182 -12 258 125q76 139 19 332q-61 209 -238 313q-205 125 -500 47q-223 -59 -342 -256q-111 -184 -93 -414.5t157 -381.5q147 -164 389 -170q150 -4 231 8q66 10 195 69l98 -157q-109 -72 -264 -97 q-98 -14 -264 -10q-322 8 -524 232q-180 199 -203 491zM692 389q16 -88 84 -127q76 -43 193 2q2 0 4 2q14 100 35 256l28 203q-29 4 -49 4q-33 0 -57 -6q-139 -43 -203 -148q-55 -88 -35 -186z" />
<glyph unicode="A" horiz-adv-x="1193" d="M139 2v6v19v65v199v198v66v18v5v4q2 190 32 293.5t122 205.5q78 84 233 166q61 33 200.5 102.5t195.5 92.5l-25 -121h221v-4v-12q0 -16 -2 -41v-150q-2 -207 -4 -453.5t-2 -453.5q-2 -88 -2 -150v-41v-16l-238 2q0 4 2 14v43v150q2 160 2 301l-497 -57v-162v-199v-65v-19 v-6h-238zM385 690l492 58v2v2v4v2v2v4v2v2v2v4v2v2v2v4v2v2v3v2v4v2v2v2v2v4v2v2v2v2v2v2v4v2v2v2v3v2v2v2l2 2v2v4v2v2v2v2v2v2v2v2v2v2v2v2v2v3v2v2v2v2v2v2v2v225q2 15 2 23q-4 -2 -9 -4q-281 -94 -380 -203q-86 -94 -107 -242z" />
<glyph unicode="B" d="M23 1317l118 2h236h248q156 -2 286 -2h49.5h45.5h26h8v-234h-2v-2q-41 -143 -86 -213h2h4h47.5h34.5h23h8v-229h-2q-4 -82 -25.5 -160t-66.5 -155.5t-108.5 -140t-162 -108.5t-219.5 -65q-45 -8 -110 -8h-236v21v555v303v81v85.5t-3 78t-10 74t-20.5 55t-35 44 t-49.5 18.5zM377 221q180 27 297 125t157 295h-120h-248h-47.5h-34.5h-4v-63v-99v-39v-18v-49v-152zM377 874h6q41 -4 68 -4h12h59q98 4 170 51.5t111 161.5h-178h-248v-202v-7z" />
<glyph unicode="C" horiz-adv-x="1124" d="M-2 1319h131h61h11h26h45h50h286h287h49.5h44.5h27h10v-236h-10h-27h-44.5h-49.5h-287h-241v-131v-49v-18v-8v-25v-76v-8q6 -123 23.5 -202t58 -149.5t115.5 -114.5t194 -71h24q49 0 107.5 -1t109.5 -1h19.5h15.5h10h5l-2 -229h-3h-10q-8 2 -16 2h-21h-108h-109h-19h-16 h-10h-2h-2q-82 10 -158.5 37t-153.5 77t-136.5 117.5t-101.5 169t-52 222.5q-2 16 0 43v10v274v150v28.5v30.5t-2 27.5t-4 29t-7 25t-11.5 24.5t-16.5 18t-22.5 16.5t-30 10.5t-37.5 7z" />
<glyph unicode="D" d="M23 1317l118 2h236h248q156 -2 286 -2h43q58 2 115 4v-12v-23v-78q0 -106 1 -234t1 -235v-77v-23v-6q0 -100 -33.5 -197.5t-101.5 -186.5t-183.5 -152.5t-265.5 -86.5q-45 -8 -110 -8h-236v21v555v303v81v85.5t-3 78t-10 74t-20.5 55t-35 44t-49.5 18.5zM377 207 q252 31 381 194q80 102 92 199q2 21 4 35q2 18 0 24v103q0 106 -2 321h-227h-248v-202v-303v-99v-39v-18v-49v-152v-14z" />
<glyph unicode="E" horiz-adv-x="1015" d="M0 1317l131 2h148h8h20h74h113.5h109.5h112.5h112.5h74h21h8v-195h-8h-21h-74h-112.5h-112.5h-109.5h-113.5h-14v-22v-150v-49v-18v-11v-16l403 -4l-2 -236q-195 2 -387 5q25 -176 120 -270.5t316 -133.5h19h71h13.5h9.5h8h2v-217h-4h-6h-10.5h-12.5h-71h-5h-2h-2h-4h-2 h-2h-4h-2h-2h-2h-2h-2h-2h-2h-2h-2h-2h-2h-2h-3h-2h-2h-2h-2h-2h-2h-2h-2h-2h-2h-2h-2h-12.5h-10.5h-6h-2q-82 10 -158.5 37t-153.5 77t-135.5 117.5t-100.5 168t-52 221.5v12q-2 20 -2 41v276v150v30.5t-1 33.5t-3 30t-5 32t-9.5 25.5t-16.5 25.5t-23.5 17.5t-31.5 15.5 t-41 5z" />
<glyph unicode="F" horiz-adv-x="1007" d="M23 1317l118 2h138h8h20h70h4h223h112.5h112.5h74h21h8v-195h-8h-21h-74h-112.5h-112.5h-109.5h-113.5h-4v-243v-23q197 -2 393 -4l-2 -236q-197 2 -391 5v-45v-99v-39v-18v-49v-152v-219h-236v21v555v303v81v85.5t-3 78t-10 74t-20.5 55t-35 44t-49.5 18.5z" />
<glyph unicode="G" d="M23 1317l118 2h236h248q156 -2 286 -2h49.5h45.5h26h8v-234h-8h-26h-46.5h-48.5h-286h-248v-202v-303v-99v-39v-18v-49v-152q180 27 297 125t157 295h-157h-31.5h-24.5h-14h-4v229h6h15h23h30q74 -2 162 -2h161h31.5h22.5h16h4v-229h-2q-4 -82 -25.5 -160t-66.5 -155.5 t-108.5 -140t-162 -108.5t-219.5 -65q-45 -8 -110 -8h-236v21v555v303v81v85.5t-3 78t-10 74t-20.5 55t-35 44t-49.5 18.5z" />
<glyph unicode="H" horiz-adv-x="1286" d="M-2 1319h127h240v-19v-51v-151v-152v-51v-18v-11v-24v-17l608 -65v354v78v72v41v16h235v-16v-41v-73v-79v-455v-276v-255v-118q-12 -35 -30.5 -67.5t-40 -57t-45 -47t-45 -39t-38 -28t-26.5 -17.5t-10 -4q0 6 -1 147.5t-1 155.5v150q2 199 2 334l-606 65q2 -438 2 -600 h-248l4 1098q2 18 1 36.5t-1 37t-3 36t-7 33.5t-14.5 29.5t-24 24t-33.5 16.5t-45 8z" />
<glyph unicode="I" horiz-adv-x="444" d="M-2 1319h127h240v-19v-49v-151v-152v-49v-18v-11v-24v-74v-76v-24v-21v-33q2 -186 2 -622l-109 96l-131 105l-2 465v10v276v152q2 18 1 36.5t-1 37t-3 36t-7 32.5t-14.5 28.5t-24 24t-33.5 17.5t-45 7z" />
<glyph unicode="J" horiz-adv-x="1044" d="M6 4l2 203h6h19h27.5h32h30.5h27h4q258 27 391 194q78 102 90 201q2 10 4 21v112v82v25v10v20v54v159v41h-90h-195h-34.5h-30.5h-17h-8l2 193h6h17h31.5h33.5h195h90h219h111q-31 -4 -53.5 -16.5t-34 -25.5t-16.5 -42t-6 -44t-1 -54v-52v-159v-297v-11q-2 -98 -36 -193 t-100.5 -181t-182 -148.5t-265.5 -85.5q-43 -6 -100 -6h-6h-6h-12h-29h-31h-30.5h-26.5h-19h-8z" />
<glyph unicode="K" horiz-adv-x="1439" d="M-6 1321h131h240v-21v-49v-151v-152v-51v-18v-11v-24v-47q45 0 86 -2h8l334 530h245l-372 -618q53 -49 114 -111l70 -70q14 -14 33 -34l32 -35q90 -92 164 -158q18 -16 41 -36.5t52.5 -45t46.5 -39.5l143 -112l2 -244q-51 23 -90 47q-59 39 -74 49q-135 94 -246 195 q-127 113 -202 192q-16 18 -146 146q-90 90 -114 110q-6 6 -11 10h-6h-10h-9h-12h-2h-2h-4h-2h-4l-2 2h-2h-4h-2h-2h-4h-2h-2h-2h-2h-3h-4h-2h-2h-2h-2h-2h-4h-2h-2h-2h-2h-2h-2h-2h-4q2 -489 2 -573l-250 2l6 1098v36.5t-1 37t-3 36t-7 34t-15.5 29.5t-24 23.5t-34 16.5 t-46.5 8z" />
<glyph unicode="L" horiz-adv-x="847" d="M23 1317l118 2h236v-39v-98v-301v-303v-99v-39v-18v-49v-135h125q100 -2 184 -2h31.5h30.5h16h6v-234h-6h-16h-30h-32h-184h-4h-2h-4h-5h-2h-4h-2h-4h-2h-2h-4h-2h-2h-4h-2h-2h-2h-4h-3h-2h-2h-2h-2h-2h-2h-2h-2h-2h-2h-2h-2h-2h-2h-2h-2h-2h-2h-2h-2h-3h-2h-2h-2h-2h-2 h-2h-2h-2h-2h-2h-2h-2h-2h-2h-2h-2h-2h-2h-2h-3h-2h-2h-2h-2h-2h-2h-2h-2h-2h-2h-2h-2h-2h-2h-2h-2h-2h-2h-2h-2h-3h-4h-30.5h-28.5h-18h-7h-90v21v555v303v81v85.5t-3 78t-10 74t-20.5 55t-35 44t-49.5 18.5z" />
<glyph unicode="M" horiz-adv-x="1454" d="M33 1440q55 -23 194.5 -92.5t200.5 -102.5q154 -82 231 -168q23 -25 41 -49q20 31 50 59q78 86 233 168q59 33 199.5 102.5t195.5 92.5l-53 -156h2v-4q0 -4 -2 -10v-41v-145q-2 -203 -4 -444.5t-4 -442.5q0 -86 -2 -148v-41v-14l-236 2v14v41q0 61 2 148q0 201 2 442 q2 248 4 398q-82 -47 -139 -111q-55 -59 -81.5 -147.5t-32.5 -225.5v-6v-12v-21.5v-20.5v-19.5v-20.5v-14v-5h-256v5v14v20.5v19.5v23q-6 150 -32 243t-85 157q-59 66 -144 112q0 -147 -2 -391q-2 -242 -4 -442q0 -86 -2 -148v-41v-14l-235 2v14v41q0 61 2 148q0 201 2 442 q2 244 4 445q2 86 2 145v41v6z" />
<glyph unicode="N" horiz-adv-x="1050" d="M78 1124l127 195q23 -12 37 -21q18 -10 47.5 -23t52.5 -26q6 -4 10 -6q147 -63 273 -135q61 -35 104 -72v97l129 186l115 -98q-4 -115 -4 -181v-22v-46.5v-41.5v-29v-10v-14v-20.5v-20.5v-56.5v-63.5v-64.5v-55.5v-20.5v-20.5v-25v-26v-42v-41.5v-41v-41.5v-27v-22v-35 q0 -47 1 -103.5t1 -101.5v-35v-12l-244 -2v528l-2 23q-10 86 -43 164t-82 125q-78 74 -227 133q-2 2 -58 22l2 -344v-8v-276v-150v-217h-237v18v50v149.5v149.5v26.5v22.5v18v10v25v36.5v37v37v36.5v25v21v32q-1 22 -1 130t1 300h-2z" />
<glyph unicode="O" horiz-adv-x="1300" d="M8 463q8 70 36 220.5t40 186.5q2 6 4 11q31 127 98 223q117 170 310 209l-52 63q53 -12 124 -27.5t110 -24.5t74 -19q170 -49 280 -199q98 -133 129 -315l64 49q-8 -66 -37 -211.5t-41 -190.5q-33 -123 -96 -217q-12 -16 -25 -33q-2 0 -2 -2q-113 -139 -281 -174l43 -47 q-47 8 -140 24.5t-130 26.5q-188 41 -309 203q-96 127 -129 301zM283 666q4 -190 98 -316q96 -127 258 -127q145 0 229 123q84 120 84 297v16q-2 188 -96 316q-90 121 -240 131h-14q-150 -2 -235 -127q-84 -121 -84 -297v-16z" />
<glyph unicode="P" horiz-adv-x="1095" d="M-6 1321h131h188h6h23h38.5h41.5q111 0 244 -2h241h43.5h36.5h23h8v-197q0 -74 -12.5 -116.5t-61.5 -108.5q-41 -49 -100 -109l-160 -139q-8 -8 -25.5 -21.5t-66.5 -36t-94 -22.5h-2h-9h-24l-76 2h-2h-2h-2h-2l-4 2h-2h-2h-2h-2q2 -492 2 -573l-250 2l6 1098v36.5t-1 37 t-3 36t-7 34t-15.5 29.5t-24 23.5t-34 16.5t-46.5 8zM365 797q14 -2 28 -2q41 0 76 -2h25q18 6 30 14q16 12 87 78.5t89 85.5q31 35 60 71q17 21 17 48q0 15 -5 32h-106q-133 2 -244 2h-36.5h-20.5v-24v-152v-51v-18v-11v-24v-47z" />
<glyph unicode="Q" horiz-adv-x="1290" d="M147 393v4v11v30v92v93v30v13v2l3 4v8v29v4v2v4v2v2v2v2v2v2v2v2v4v13q0 68 4 102q10 133 57 222t135 141.5t202 75t277 24.5h60h176v-10v-29v-86v-88v-29v-10v-10v-27v-35.5v-42v-43t-2 -37.5v-26v-10v-3v-2v-6v-20q0 -27 -1 -59.5t-1 -59.5v-5t-2 -5h2q0 -6 -2 -15v-4 q-12 -170 -86 -309q104 -88 133 -115l108 -86l2 -243q-51 20 -90 47q-57 39 -71 47v2v8q-102 68 -215 162q-139 -127 -349 -158q-45 -8 -96 -8h-10h-27l-80 -2h-79l-27 -2h-10l-2 182v8q0 10 -2 25l-2 74q0 39 -2 73v2v5v2v2v2v2v2v2v2v2v8zM371 401q0 -2 2 -10v-24 q2 -33 2 -72l2 -74q178 25 278 109q-35 33 -69 69l-43 41l-4 2l-2 2l-5 5l-2 2l-2 2l-2 2l-2 2l-2 2l-2 2h-2l-2 2v2h-2l-2 2l-2 2l-2 2l-2 2l-2 2l-2 2l-2 2l-4 2l-2 4l-2 2l-3 2l-2 3h-2l-4 4l-6 6l156 166l4 -4q6 -6 16 -15l45 -43l45 -43l4 -2l3 -2l2 -2l2 -2l2 -2l4 -2 l6 -6q-2 -2 -4 -2q10 -12 20 -23q29 86 41 201v6v10v13q2 33 2 59v20v2l2 3v10v26v37v43.5v42v37.5v25v10v10v12q-113 0 -192.5 -15t-128.5 -41.5t-78 -72t-40 -93t-13 -117.5v-13v-30v-29q-2 -10 -2 -12v-11v-30v-93v-92v-30v-7z" />
<glyph unicode="R" horiz-adv-x="1439" d="M-6 1321h131h188h6h23h38.5h41.5q111 0 244 -2h241h43.5h36.5h23h8v-197q0 -74 -12.5 -116.5t-61.5 -108.5q-41 -49 -100 -109q-27 -27 -137 -120q35 -33 73 -72l70 -70q14 -14 33 -34l32 -35q90 -92 164 -158q18 -16 41 -36.5t52.5 -45t46.5 -39.5l143 -112l2 -244 q-51 23 -90 47q-59 39 -74 49q-135 94 -246 195q-127 113 -202 192q-16 18 -146 146q-90 90 -114 110q-6 6 -11 10l-114 2q2 -489 2 -573l-250 2l6 1098v36.5t-1 37t-3 36t-7 34t-15.5 29.5t-24 23.5t-34 16.5t-46.5 8zM365 797l137 -2q14 6 22 12q16 12 87 78.5t89 85.5 q31 35 60 71q17 21 17 49q0 15 -5 31h-106q-133 2 -244 2h-36.5h-20.5v-24v-152v-51v-18v-11v-24v-47z" />
<glyph unicode="S" d="M123 2v215h12h29h47.5h44.5h44.5h37.5q199 20 324.5 118.5t168.5 305.5h-223h-317h-59.5h-45.5h-28h-11v213q0 14 3 23q16 113 56 189.5t97 125.5t147.5 76.5t191.5 37t247 9.5l-2 -230q-34 1 -65 1q-128 0 -212 -20q-106 -24 -154 -71t-69 -125q27 -2 100 -2h123h318 h58.5h45.5h29h10l-2 -229q-4 -82 -25.5 -160t-66.5 -155.5t-108.5 -140t-162 -108.5t-219.5 -65q-41 -6 -98 -8h-12h-29h-47.5h-44.5h-45h-47h-29h-12z" />
<glyph unicode="T" horiz-adv-x="1292" d="M31 1104v219h14h37h135h205.5h200.5h202.5h204.5h135h37h15v-219h-15h-37h-135h-289v-100q2 -186 2 -407.5v-406.5q0 -80 2 -135v-15v-11v-11v-12l-237 -2v14v10.5v11.5v15q-2 55 -2 133v407.5t-2 405.5v103h-287h-135h-37h-14z" />
<glyph unicode="U" horiz-adv-x="1150" d="M23 1317l118 2h236v-39v-98v-301v-303v-99v-39v-18v-49v-152v-14q252 31 381 194q80 102 92 199q2 16 4 29q-2 248 -2 439.5v197.5v41v14h215l2 -12v-39v-146q0 -199 2 -438v-51v-2v-35v-154v-196l2 -246l-219 -6v104v27v39q-145 -123 -367 -156q-45 -8 -110 -8h-236v21 v555v303v81v85.5t-3 78t-10 74t-20.5 55t-35 44t-49.5 18.5z" />
<glyph unicode="V" d="M23 1317l118 2h236v-39v-98v-301v-303v-99v-39v-18v-49v-152v-14q252 31 381 194q80 102 92 199q2 20 4 35q2 18 0 24q0 16 -1 313.5t-1 313.5v23v6l217 2v-8v-21v-78q0 -109 1 -236.5t1 -234.5v-77v-23v-6q0 -100 -33.5 -197.5t-101.5 -186.5t-183.5 -152.5 t-265.5 -86.5q-45 -8 -110 -8h-236v21v555v303v81v85.5t-3 78t-10 74t-20.5 55t-35 44t-49.5 18.5z" />
<glyph unicode="W" horiz-adv-x="1677" d="M74 879v14v4v8v19q0 27 1 57.5t1 56.5v19v12v14v17.5v21.5v39v13v12v14v24.5v26v25.5v24l-2 15v6h237l8 -535q8 -88 42 -165.5t83 -124.5q78 -76 228 -136q6 -2 26 -12v35v15.5v13.5v12q0 2 2 14v41v122t2 122v39v24v29v38.5v43.5v84v27v22v16.5v18.5v49.5v55v55v49.5v35 v12h246l-4 -533l4 -22q8 -88 42 -166t83 -125q78 -76 227 -137q2 0 58 -23v347v10q2 248 2 278v150l2 219h237v-19v-51v-149.5v-151.5v-49l-2 -18v-11v-24v-76v-38.5v-35.5v-26v-21v-14v-19q0 -45 -2 -432l2 -2l-129 -192q-23 10 -38 18q-16 10 -46 24.5t-55 26.5 q-4 4 -10 7q-147 66 -275 137q-61 35 -102 71q-2 -47 -2 -96h2l-57 -78q-4 -8 -11 -16l-65 -92l-256 160q-96 49 -137 71q-88 51 -146 115q-78 86 -133 220t-61 284v18q-2 10 -2 19z" />
<glyph unicode="X" horiz-adv-x="1341" d="M78 0l409 604l127 -170l-161 -231h211h96h73.5h59.5l-801 1116h174h8h27h44h48h132h151h150.5h131.5h47.5h45.5h26h8v-2q84 2 168 2l-407 -606l-129 170l162 231h-2h-3h-2h-2h-2h-4h-2h-2h-2h-2h-2h-2h-2h-2h-2h-2h-2h-2h-2h-2h-2h-3h-2h-2h-2h-2h-2h-2h-2h-2h-2h-2h-2 h-2h-2h-2h-2h-2h-2h-2h-2h-2h-3h-2h-2h-2h-2h-2h-2h-2h-2h-2h-2h-2h-2h-2h-2h-2h-2h-2h-2h-2h-2h-3h-2h-2h-2h-2h-2h-2h-2h-2h-2h-2h-2h-2h-2h-2h-2h-2h-2h-2h-2h-2h-3h-2h-2h-2h-2h-2h-2h-2h-2h-2h-2h-2h-2h-2h-219l807 -1114h-162v-2h-8h-29h-100q-66 0 -140.5 1t-160.5 1 h-162h-142h-100h-27h-10h-145z" />
<glyph unicode="Y" horiz-adv-x="1468" d="M-115 -246l674 879l-543 688h316l391 -475l367 477l303 -2l-1190 -1567h-318z" />
<glyph unicode="Z" horiz-adv-x="1335" d="M68 0l776 1114h-2h-2h-2h-2h-2h-3h-2h-2h-2h-2h-2h-2h-2h-2h-2h-2h-2h-2h-2h-2h-2h-2h-2h-2h-2h-2h-3h-2h-2h-2h-2h-2h-2h-2h-4h-2h-2h-2h-2h-2h-2h-2h-2h-2h-2h-2h-3h-2h-2h-2h-2h-2h-2h-2h-2h-2h-2h-2h-2h-2h-2h-2h-2h-2h-2h-2h-2h-3h-2h-2h-2h-2h-2h-2h-2h-2h-2h-2h-2 h-2h-2h-215l129 -188l-103 -160l-391 555h223v-2h33h41h282.5h282.5h27h2h240l-142 -205l-626 -911h93h142h193l-142 203l111 161l404 -565l-158 -2v-2h-8h-27h-2h-12h-23h-55h-10q-66 0 -140.5 1t-160.5 1h-162h-142h-41h-26h-8h-25h-27h-10v2z" />
<glyph unicode="[" horiz-adv-x="608" d="M205 -442q2 18 2 51v12v17.5v23.5v230v231v39.5v36.5v30v15v37q2 53 2 114v63.5v53.5v37v33v21v28l2 962h78h139l96 4q-18 -2 -31.5 -9t-23.5 -20.5t-17.5 -30.5t-11.5 -37.5t-7 -43t-4 -47.5t-1 -50.5v-50v-46.5l-4 -1594q18 -111 86 -117q-47 2 -96 5l-207 2h-2z" />
<glyph unicode="\" horiz-adv-x="821" d="M-74 1593l189 2l630 -1988h-186z" />
<glyph unicode="]" horiz-adv-x="483" d="M78 -449q16 2 30.5 8.5t24.5 22t17.5 28.5t11.5 38.5t7 43t4 49.5t2 48t1 51v47l10 1598q-16 111 -86 117l97 -5l209 -2v-57v-18v-29q-2 -104 -2.5 -231t-2.5 -232v-76v-30v-15v-37q0 -53 -1 -116.5t-1 -114.5v-39v-31v-51q0 -70 -6 -964h-80q-70 0 -139 2q-47 -2 -96 -5 zM92 1604q4 -2 8 -2q-4 2 -8 2z" />
<glyph unicode="^" horiz-adv-x="1069" d="M90 662l451 796l69 -123l-381 -673h-139zM571 1178l68 118l354 -634h-137z" />
<glyph unicode="_" horiz-adv-x="1095" d="M4 -125h10h33h54.5h60.5h350h348h60.5h56.5h31h12v-143h-12h-31h-56.5h-60.5h-348h-350h-58.5h-56.5h-33h-10v143z" />
<glyph unicode="`" horiz-adv-x="1003" d="M231 1595h189l508 -452l-199 6z" />
<glyph unicode="a" horiz-adv-x="1193" d="M139 2v6v19v65v199v198v66v18v5v4q2 190 32 293.5t122 205.5q78 84 233 166q61 33 200.5 102.5t195.5 92.5l-25 -121h221v-4v-12q0 -16 -2 -41v-150q-2 -207 -4 -453.5t-2 -453.5q-2 -88 -2 -150v-41v-16l-238 2q0 4 2 14v43v150q2 160 2 301l-497 -57v-162v-199v-65v-19 v-6h-238zM385 690l492 58v2v2v4v2v2v4v2v2v2v4v2v2v2v4v2v2v3v2v4v2v2v2v2v4v2v2v2v2v2v2v4v2v2v2v3v2v2v2l2 2v2v4v2v2v2v2v2v2v2v2v2v2v2v2v2v3v2v2v2v2v2v2v2v225q2 15 2 23q-4 -2 -9 -4q-281 -94 -380 -203q-86 -94 -107 -242z" />
<glyph unicode="b" d="M23 1317l118 2h236h248q156 -2 286 -2h49.5h45.5h26h8v-234h-2v-2q-41 -143 -86 -213h2h4h47.5h34.5h23h8v-229h-2q-4 -82 -25.5 -160t-66.5 -155.5t-108.5 -140t-162 -108.5t-219.5 -65q-45 -8 -110 -8h-236v21v555v303v81v85.5t-3 78t-10 74t-20.5 55t-35 44 t-49.5 18.5zM377 221q180 27 297 125t157 295h-120h-248h-47.5h-34.5h-4v-63v-99v-39v-18v-49v-152zM377 874h6q41 -4 68 -4h12h59q98 4 170 51.5t111 161.5h-178h-248v-202v-7z" />
<glyph unicode="c" horiz-adv-x="1124" d="M-2 1319h131h61h11h26h45h50h286h287h49.5h44.5h27h10v-236h-10h-27h-44.5h-49.5h-287h-241v-131v-49v-18v-8v-25v-76v-8q6 -123 23.5 -202t58 -149.5t115.5 -114.5t194 -71h24q49 0 107.5 -1t109.5 -1h19.5h15.5h10h5l-2 -229h-3h-10q-8 2 -16 2h-21h-108h-109h-19h-16 h-10h-2h-2q-82 10 -158.5 37t-153.5 77t-136.5 117.5t-101.5 169t-52 222.5q-2 16 0 43v10v274v150v28.5v30.5t-2 27.5t-4 29t-7 25t-11.5 24.5t-16.5 18t-22.5 16.5t-30 10.5t-37.5 7z" />
<glyph unicode="d" d="M23 1317l118 2h236h248q156 -2 286 -2h49.5h45.5h26h8h29v-8v-21v-78q0 -109 1 -236.5t1 -234.5v-77v-23v-6q0 -100 -33.5 -197.5t-101.5 -186.5t-183.5 -152.5t-265.5 -86.5q-45 -8 -110 -8h-236v21v555v303v81v85.5t-3 78t-10 74t-20.5 55t-35 44t-49.5 18.5zM377 207 q252 31 381 194q80 102 92 199q2 21 4 35q2 18 0 24v209l-2 215h-227h-248v-202v-303v-99v-39v-18v-49v-152v-14z" />
<glyph unicode="e" horiz-adv-x="1015" d="M0 1317l131 2h148h8h20h74h113.5h109.5h112.5h112.5h74h21h8v-195h-8h-21h-74h-112.5h-112.5h-109.5h-113.5h-14v-22v-150v-49v-18v-11v-16l403 -4l-2 -236q-195 2 -387 5q25 -176 120 -270.5t316 -133.5h19h71h13.5h9.5h8h2v-217h-4h-6h-10.5h-12.5h-71h-5h-2h-2h-4h-2 h-2h-4h-2h-2h-2h-2h-2h-2h-2h-2h-2h-2h-2h-2h-3h-2h-2h-2h-2h-2h-2h-2h-2h-2h-2h-2h-2h-12.5h-10.5h-6h-2q-82 10 -158.5 37t-153.5 77t-135.5 117.5t-100.5 168t-52 221.5v12q-2 20 -2 41v276v150v30.5t-1 33.5t-3 30t-5 32t-9.5 25.5t-16.5 25.5t-23.5 17.5t-31.5 15.5 t-41 5z" />
<glyph unicode="f" horiz-adv-x="1007" d="M23 1317l118 2h138h8h20h70h4h223h112.5h112.5h74h21h8v-195h-8h-21h-74h-112.5h-112.5h-109.5h-113.5h-4v-243v-23q197 -2 393 -4l-2 -236q-197 2 -391 5v-45v-99v-39v-18v-49v-152v-219h-236v21v555v303v81v85.5t-3 78t-10 74t-20.5 55t-35 44t-49.5 18.5z" />
<glyph unicode="g" d="M23 1317l118 2h236h248q156 -2 286 -2h49.5h45.5h26h8v-234h-8h-26h-46.5h-48.5h-286h-248v-202v-303v-99v-39v-18v-49v-152q180 27 297 125t157 295h-157h-31.5h-24.5h-14h-4v229h6h15h23h30q74 -2 162 -2h161h31.5h22.5h16h4v-229h-2q-4 -82 -25.5 -160t-66.5 -155.5 t-108.5 -140t-162 -108.5t-219.5 -65q-45 -8 -110 -8h-236v21v555v303v81v85.5t-3 78t-10 74t-20.5 55t-35 44t-49.5 18.5z" />
<glyph unicode="h" horiz-adv-x="1286" d="M-2 1319h127h240v-19v-51v-151v-152v-51v-18v-11v-24v-17l608 -65v354v78v72v41v16h235v-16v-41v-73v-79v-455v-276v-255v-118q-12 -35 -30.5 -67.5t-40 -57t-45 -47t-45 -39t-38 -28t-26.5 -17.5t-10 -4q0 6 -1 147.5t-1 155.5v150q2 199 2 334l-606 65q2 -438 2 -600 h-248l4 1098q2 18 1 36.5t-1 37t-3 36t-7 33.5t-14.5 29.5t-24 24t-33.5 16.5t-45 8z" />
<glyph unicode="i" horiz-adv-x="444" d="M-2 1319h127h240v-19v-49v-151v-152v-49v-18v-11v-24v-74v-76v-24v-21v-33q2 -186 2 -622l-109 96l-131 105l-2 465v10v276v152q2 18 1 36.5t-1 37t-3 36t-7 32.5t-14.5 28.5t-24 24t-33.5 17.5t-45 7z" />
<glyph unicode="j" horiz-adv-x="1044" d="M6 4l2 203h6h19h27.5h32h30.5h27h4q258 27 391 194q78 102 90 201q2 10 4 21v112v82v25v10v20v54v159v41h-90h-195h-34.5h-30.5h-17h-8l2 193h6h17h31.5h33.5h195h90h219h111q-31 -4 -53.5 -16.5t-34 -25.5t-16.5 -42t-6 -44t-1 -54v-52v-159v-297v-11q-2 -98 -36 -193 t-100.5 -181t-182 -148.5t-265.5 -85.5q-43 -6 -100 -6h-6h-6h-12h-29h-31h-30.5h-26.5h-19h-8z" />
<glyph unicode="k" horiz-adv-x="1439" d="M-6 1321h131h240v-21v-49v-151v-152v-51v-18v-11v-24v-47q45 0 86 -2h8l334 530h245l-372 -618q53 -49 114 -111l70 -70q14 -14 33 -34l32 -35q90 -92 164 -158q18 -16 41 -36.5t52.5 -45t46.5 -39.5l143 -112l2 -244q-51 23 -90 47q-59 39 -74 49q-135 94 -246 195 q-127 113 -202 192q-16 18 -146 146q-90 90 -114 110q-6 6 -11 10h-6h-10h-9h-12h-2h-2h-4h-2h-4l-2 2h-2h-4h-2h-2h-4h-2h-2h-2h-2h-3h-4h-2h-2h-2h-2h-2h-4h-2h-2h-2h-2h-2h-2h-2h-4q2 -489 2 -573l-250 2l6 1098v36.5t-1 37t-3 36t-7 34t-15.5 29.5t-24 23.5t-34 16.5 t-46.5 8z" />
<glyph unicode="l" horiz-adv-x="847" d="M23 1317l118 2h236v-39v-98v-301v-303v-99v-39v-18v-49v-135h125q100 -2 184 -2h31.5h30.5h16h6v-234h-6h-16h-30h-32h-184h-4h-2h-4h-5h-2h-4h-2h-4h-2h-2h-4h-2h-2h-4h-2h-2h-2h-4h-3h-2h-2h-2h-2h-2h-2h-2h-2h-2h-2h-2h-2h-2h-2h-2h-2h-2h-2h-2h-2h-3h-2h-2h-2h-2h-2 h-2h-2h-2h-2h-2h-2h-2h-2h-2h-2h-2h-2h-2h-2h-3h-2h-2h-2h-2h-2h-2h-2h-2h-2h-2h-2h-2h-2h-2h-2h-2h-2h-2h-2h-2h-3h-4h-30.5h-28.5h-18h-7h-90v21v555v303v81v85.5t-3 78t-10 74t-20.5 55t-35 44t-49.5 18.5z" />
<glyph unicode="m" horiz-adv-x="1456" d="M35 1438q55 -25 193.5 -93.5t199.5 -101.5q156 -82 231 -168q25 -25 43 -49q20 29 50 59q78 86 231 168q61 33 200.5 101.5t196.5 93.5l-53 -156v-4v-10v-41q0 -59 -2 -145q-2 -203 -4 -444.5t-2 -444.5q-2 -84 -2 -146v-41v-14l-238 2v14q2 16 2 41v146q2 203 4 444 q2 248 5 398q-82 -47 -140 -111q-57 -61 -82.5 -149.5t-33.5 -223.5h2v-6v-14v-19.5v-20.5t-1 -19.5t-1 -20.5v-14v-7l-256 2v5v14q0 10 1 20.5t1 19.5v23q-8 150 -34 243t-83 157q-59 66 -144 112q-2 -166 -4 -391q-2 -242 -2 -444q-2 -84 -2 -146v-41v-14l-237 2v14 q2 16 2 41v146q2 201 4 444l4 445q0 86 2 145v41v4z" />
<glyph unicode="n" horiz-adv-x="1050" d="M78 1124l127 195q23 -12 37 -21q18 -10 47.5 -23t52.5 -26q6 -4 10 -6q147 -63 273 -135q61 -35 104 -72v97l129 186l115 -98q-4 -115 -4 -181v-22v-46.5v-41.5v-29v-10v-14v-20.5v-20.5v-56.5v-63.5v-64.5v-55.5v-20.5v-20.5v-25v-26v-42v-41.5v-41v-41.5v-27v-22v-35 q0 -47 1 -103.5t1 -101.5v-35v-12l-244 -2v528l-2 23q-10 86 -43 164t-82 125q-78 74 -227 133q-2 2 -58 22l2 -344v-8v-276v-150v-217h-237v18v50v149.5v149.5v26.5v22.5v18v10v25v36.5v37v37v36.5v25v21v32q-1 22 -1 130t1 300h-2z" />
<glyph unicode="o" horiz-adv-x="1300" d="M8 463q8 70 36 220.5t40 186.5q2 6 4 11q31 127 98 223q117 170 310 209l-52 63q53 -12 124 -27.5t110 -24.5t74 -19q170 -49 280 -199q98 -133 129 -315l64 49q-8 -66 -37 -211.5t-41 -190.5q-33 -123 -96 -217q-12 -16 -25 -33q-2 0 -2 -2q-113 -139 -281 -174l43 -47 q-47 8 -140 24.5t-130 26.5q-188 41 -309 203q-96 127 -129 301zM283 666q4 -190 98 -316q96 -127 258 -127q145 0 229 123q84 120 84 297v16q-2 188 -96 316q-90 121 -240 131h-14q-150 -2 -235 -127q-84 -121 -84 -297v-16z" />
<glyph unicode="p" horiz-adv-x="1095" d="M-6 1321h131h188h6h23h38.5h41.5q111 0 244 -2h241h43.5h36.5h23h8v-197q0 -74 -12.5 -116.5t-61.5 -108.5q-41 -49 -100 -109l-160 -139q-8 -8 -25.5 -21.5t-66.5 -36t-94 -22.5h-2h-9h-24l-76 2h-2h-2h-2h-2l-4 2h-2h-2h-2h-2q2 -492 2 -573l-250 2l6 1098v36.5t-1 37 t-3 36t-7 34t-15.5 29.5t-24 23.5t-34 16.5t-46.5 8zM365 797q14 -2 28 -2q41 0 76 -2h25q18 6 30 14q16 12 87 78.5t89 85.5q31 35 60 71q17 21 17 48q0 15 -5 32h-106q-133 2 -244 2h-36.5h-20.5v-24v-152v-51v-18v-11v-24v-47z" />
<glyph unicode="q" horiz-adv-x="1343" d="M147 375v2v6v10v31v92v92v31v12v2v4q0 4 3 11v28.5v28.5v14q2 10 1 27.5t-1 38t4 49.5q10 133 57 222t135 141.5t202 75t277 24.5h60h168v-10v-29v-86v-88v-29v-10v-10v-27v-35.5v-42v-43v-37.5v-26v-10v-3v-8v-20q-2 -27 -2 -59.5t-2 -59.5v-20v-9q-10 -139 -60 -258 q2 -2 98 -82l177 -139l2 -244q-51 23 -90 48q-31 20 -50 32l-2 2q-8 6 -18 13q-2 0 -2 2q-117 78 -234 176q-143 -160 -383 -195q-45 -8 -96 -8h-10h-27l-80 -2h-79l-27 -2h-10q0 88 -2 176v6v7v10q-2 35 -4 73l-2 74v25q0 4 -3 6zM383 385q0 -4 2 -8v-25q2 -33 2 -71 q2 -27 2 -58q201 31 307 137l-57 58l-61 59q-12 10 -21 19l-8 8l158 164q2 -2 8 -9q8 -8 20 -18l2 -2l4 -4l2 -2l2 -2l3 -2l2 -2l2 -2l2 -2h2v-2l2 -3l2 -2h2v-2l2 -2h2v-2l2 -2l2 -2h2v-2l2 -2h2l2 -2l2 -2v-2l2 -2h2l2 -2l2 -2l3 -2l2 -2l2 -2l2 -2q0 -2 2 -2l6 -7l4 -4 l2 -2l4 43q4 68 6 80q0 27 1 59.5t1 59.5v20v15v26v37v43.5t1 42t1 37.5v25v20v12q-100 0 -171.5 -9t-119 -31.5t-76 -48t-44 -70.5t-21.5 -87t-8 -108v-14v-29v-15t-1 -13.5t-1 -9.5v-5v-8v-31v-92v-92v-31v-6v-2z" />
<glyph unicode="r" horiz-adv-x="1439" d="M-6 1321h131h188h6h23h38.5h41.5q111 0 244 -2h241h43.5h36.5h23h8v-197q0 -74 -12.5 -116.5t-61.5 -108.5q-41 -49 -100 -109q-27 -27 -137 -120q35 -33 73 -72l70 -70q14 -14 33 -34l32 -35q90 -92 164 -158q18 -16 41 -36.5t52.5 -45t46.5 -39.5l143 -112l2 -244 q-51 23 -90 47q-59 39 -74 49q-135 94 -246 195q-127 113 -202 192q-16 18 -146 146q-90 90 -114 110q-6 6 -11 10l-114 2q2 -489 2 -573l-250 2l6 1098v36.5t-1 37t-3 36t-7 34t-15.5 29.5t-24 23.5t-34 16.5t-46.5 8zM365 797l137 -2q14 6 22 12q16 12 87 78.5t89 85.5 q31 35 60 71q17 21 17 49q0 15 -5 31h-106q-133 2 -244 2h-36.5h-20.5v-24v-152v-51v-18v-11v-24v-47z" />
<glyph unicode="s" d="M123 2v215h12h29h47.5h44.5h44.5h37.5q199 20 324.5 118.5t168.5 305.5h-223h-317h-59.5h-45.5h-28h-11v213q0 14 3 23q16 113 56 189.5t97 125.5t147.5 76.5t191.5 37t247 9.5l-2 -230q-34 1 -65 1q-128 0 -212 -20q-106 -24 -154 -71t-69 -125q27 -2 100 -2h123h318 h58.5h45.5h29h10l-2 -229q-4 -82 -25.5 -160t-66.5 -155.5t-108.5 -140t-162 -108.5t-219.5 -65q-41 -6 -98 -8h-12h-29h-47.5h-44.5h-45h-47h-29h-12z" />
<glyph unicode="t" horiz-adv-x="1386" d="M125 1100v219h14h37h135h206h200h202.5h204.5h136h36h15v-219h-15h-36h-136h-288v-101q2 -186 2 -407v-406q0 -80 2 -135v-15v-11.5v-10.5v-12l-238 -2v14v10.5v11.5v15q-2 55 -2 133v407.5t-2 405.5v103h-287h-135h-37h-14z" />
<glyph unicode="u" horiz-adv-x="1150" d="M23 1317l118 2h236v-39v-98v-301v-303v-99v-39v-18v-49v-152v-14q252 31 381 194q80 102 92 199q2 16 4 29q-2 627 -2 631v40v15l217 2v-14v-41v-144q0 -199 2 -436v-47v-2v-35v-176v-176q0 -84 2 -244l-219 -6v104v15v51q-145 -123 -367 -156q-45 -8 -110 -8h-236v21 v555v303v81v85.5t-3 78t-10 74t-20.5 55t-35 44t-49.5 18.5z" />
<glyph unicode="v" d="M23 1317l118 2h236v-39v-98v-301v-303v-99v-39v-18v-49v-152v-14q252 31 381 194q80 102 92 199q2 20 4 35q2 18 0 24q0 16 -1 313.5t-1 313.5v23v6l217 2v-8v-21v-78q0 -109 1 -236.5t1 -234.5v-77v-23v-6q0 -100 -33.5 -197.5t-101.5 -186.5t-183.5 -152.5 t-265.5 -86.5q-45 -8 -110 -8h-236v21v555v303v81v85.5t-3 78t-10 74t-20.5 55t-35 44t-49.5 18.5z" />
<glyph unicode="w" horiz-adv-x="1677" d="M74 879v14v4v8v19q0 27 1 57.5t1 56.5v19v12v14v17.5v21.5v39v13v12v14v24.5v26v25.5v24l-2 15v6h237l8 -535q8 -88 42 -165.5t83 -124.5q78 -76 228 -136q6 -2 26 -12v35v15.5v13.5v12q0 2 2 14v41v122t2 122v39v24v29v38.5v43.5v84v27v22v16.5v18.5v49.5v55v55v49.5v35 v12h246l-4 -533l4 -22q8 -88 42 -166t83 -125q78 -76 227 -137q2 0 58 -23v347v10q2 248 2 278v150l2 219h237v-19v-51v-149.5v-151.5v-49l-2 -18v-11v-24v-76v-38.5v-35.5v-26v-21v-14v-19q0 -45 -2 -432l2 -2l-129 -192q-23 10 -38 18q-16 10 -46 24.5t-55 26.5 q-4 4 -10 7q-147 66 -275 137q-61 35 -102 71q-2 -47 -2 -96h2l-57 -78q-4 -8 -11 -16l-65 -92l-256 160q-96 49 -137 71q-88 51 -146 115q-78 86 -133 220t-61 284v18q-2 10 -2 19z" />
<glyph unicode="x" horiz-adv-x="1341" d="M78 0l409 604l127 -170l-161 -231h211h96h73.5h59.5l-801 1116h174h8h27h44h48h132h151h150.5h131.5h47.5h45.5h26h8v-2q84 2 168 2l-407 -606l-129 170l162 231h-2h-3h-2h-2h-2h-4h-2h-2h-2h-2h-2h-2h-2h-2h-2h-2h-2h-2h-2h-2h-2h-3h-2h-2h-2h-2h-2h-2h-2h-2h-2h-2h-2 h-2h-2h-2h-2h-2h-2h-2h-2h-2h-3h-2h-2h-2h-2h-2h-2h-2h-2h-2h-2h-2h-2h-2h-2h-2h-2h-2h-2h-2h-2h-3h-2h-2h-2h-2h-2h-2h-2h-2h-2h-2h-2h-2h-2h-2h-2h-2h-2h-2h-2h-2h-3h-2h-2h-2h-2h-2h-2h-2h-2h-2h-2h-2h-2h-2h-219l807 -1114h-162v-2h-8h-29h-100q-66 0 -140.5 1t-160.5 1 h-162h-142h-100h-27h-10h-145z" />
<glyph unicode="y" horiz-adv-x="1468" d="M-115 -246l674 879l-543 688h316l391 -475l367 477l303 -2l-1190 -1567h-318z" />
<glyph unicode="z" horiz-adv-x="1335" d="M68 0l776 1114h-2h-2h-2h-2h-2h-3h-2h-2h-2h-2h-2h-2h-2h-2h-2h-2h-2h-2h-2h-2h-2h-2h-2h-2h-2h-2h-3h-2h-2h-2h-2h-2h-2h-2h-4h-2h-2h-2h-2h-2h-2h-2h-2h-2h-2h-2h-3h-2h-2h-2h-2h-2h-2h-2h-2h-2h-2h-2h-2h-2h-2h-2h-2h-2h-2h-2h-2h-3h-2h-2h-2h-2h-2h-2h-2h-2h-2h-2h-2 h-2h-2h-215l129 -188l-103 -160l-391 555h223v-2h33h41h282.5h282.5h27h2h240l-142 -205l-626 -911h93h142h193l-142 203l111 161l404 -565l-158 -2v-2h-8h-27h-2h-12h-23h-55h-10q-66 0 -140.5 1t-160.5 1h-162h-142h-41h-26h-8h-25h-27h-10v2z" />
<glyph unicode="{" horiz-adv-x="1695" d="M104 0l234 430l90 174l500 2l108 -192q-238 2 -473 2l-108 -203q406 -2 811 -4l-420 768l-154 -279l-211 7l254 477l78 143l25 49q6 12 14 25l766 -1397h-141v-2h-82h-15l-1040 2v-2h-236z" />
<glyph unicode="|" horiz-adv-x="438" d="M182 1247v228v32.5v30.5v16v7h176v-7v-16v-29.5v-33.5v-226q0 -313 1 -688t1 -686v-227v-32.5v-31.5v-16v-6h-176v6v16v30.5v33.5v227q0 311 -1 686t-1 686z" />
<glyph unicode="}" horiz-adv-x="1720" d="M121 1407h143v2q39 0 80 -2h16l1045 -4v2h237l-235 -432l-92 -176l-502 2l-108 192q238 -2 475 -4l110 203l-817 8l420 -774l156 278l213 -6l-258 -477l-78 -145l-27 -49q-6 -12 -12 -25z" />
<glyph unicode="~" horiz-adv-x="1030" d="M88 498q2 98 15.5 160.5t46 114.5t93 79t156.5 37q18 2 60 -2v2l114 2l9 -6v-17q2 -23 2 -55q2 -78 4 -172q0 -37 2 -123q121 23 178 94.5t68 186.5q0 12 2 26v26.5v25.5v16v8l116 -4v-6v-17q-2 -25 -2 -53v-51q-2 -4 -2 -8q2 -2 2 -4q-2 -37 -6 -62q-14 -80 -51 -140 t-88 -94t-104.5 -51.5t-112.5 -19.5q0 2 -2 2q-59 0 -119 -2v6v17q0 23 -2 55q-2 78 -2 170q-2 96 -4 129q-57 -4 -94 -15.5t-67 -40t-43 -81.5t-13 -135z" />
<glyph unicode="&#xad;" d="M55 537v143h11h32h56.5h58.5h350.5h347.5h60.5h56.5h31h12v-143h-12h-31h-56.5h-60.5h-348h-350h-58.5h-56.5h-32h-11z" />
<glyph unicode="&#x2000;" horiz-adv-x="802" />
<glyph unicode="&#x2001;" horiz-adv-x="1604" />
<glyph unicode="&#x2002;" horiz-adv-x="802" />
<glyph unicode="&#x2003;" horiz-adv-x="1604" />
<glyph unicode="&#x2004;" horiz-adv-x="534" />
<glyph unicode="&#x2005;" horiz-adv-x="401" />
<glyph unicode="&#x2006;" horiz-adv-x="267" />
<glyph unicode="&#x2007;" horiz-adv-x="267" />
<glyph unicode="&#x2008;" horiz-adv-x="200" />
<glyph unicode="&#x2009;" horiz-adv-x="320" />
<glyph unicode="&#x200a;" horiz-adv-x="89" />
<glyph unicode="&#x2010;" d="M55 537v143h11h32h56.5h58.5h350.5h347.5h60.5h56.5h31h12v-143h-12h-31h-56.5h-60.5h-348h-350h-58.5h-56.5h-32h-11z" />
<glyph unicode="&#x2011;" d="M55 537v143h11h32h56.5h58.5h350.5h347.5h60.5h56.5h31h12v-143h-12h-31h-56.5h-60.5h-348h-350h-58.5h-56.5h-32h-11z" />
<glyph unicode="&#x2012;" d="M55 537v143h11h32h56.5h58.5h350.5h347.5h60.5h56.5h31h12v-143h-12h-31h-56.5h-60.5h-348h-350h-58.5h-56.5h-32h-11z" />
<glyph unicode="&#x2013;" horiz-adv-x="1156" d="M55 537v143h11h32h57.5h58.5h354h350h60.5h57.5h31h12v-143h-12h-31h-57.5h-60.5h-351h-353h-58.5h-57.5h-32h-11z" />
<glyph unicode="&#x2014;" horiz-adv-x="2180" d="M55 537v143h22h65h113.5h117.5h707h700h122.5h113.5h63h24v-143h-24h-63h-113.5h-122.5h-701h-706h-117.5h-113.5h-65h-22z" />
<glyph unicode="&#x2018;" horiz-adv-x="352" d="M88 965q-63 137 43 266q45 51 127 82q18 6 18 2l-4 -4q-133 -113 -104 -244q39 -2 61 -33q20 -27 15.5 -59.5t-31.5 -52t-59.5 -14.5t-51.5 32q-10 10 -14 25z" />
<glyph unicode="&#x2019;" horiz-adv-x="485" d="M195 911q0 2 4 4q133 113 104 244q-39 2 -61 33q-20 29 -15.5 61.5t31.5 52t59.5 14.5t53.5 -34q6 -8 10 -18q68 -141 -43 -273q-43 -51 -125 -82q-18 -6 -18 -2z" />
<glyph unicode="&#x201c;" horiz-adv-x="753" d="M88 965q-63 137 43 266q45 51 127 82q18 6 18 2l-4 -4q-133 -113 -104 -244q39 -2 61 -33q20 -27 15.5 -59.5t-31.5 -52t-59.5 -14.5t-51.5 32q-10 10 -14 25zM494 958q-70 141 38 273q45 51 127 82q18 6 18.5 4t-3.5 -6q-133 -113 -105 -244q41 -2 64 -33 q20 -27 15 -59.5t-31.5 -52t-59.5 -15.5t-53 31q-6 10 -10 20z" />
<glyph unicode="&#x201d;" horiz-adv-x="870" d="M186 909q0 2 4 6q131 113 103 244q-43 -2 -70 33q-20 27 -15 59.5t32 51.5q25 20 56.5 16t51.5 -27l10 -4q86 -152 -28 -291q-43 -55 -127 -84q-14 -6 -17 -4zM586 915q-2 3 2 5q131 115 102 245q-39 0 -61 31q-20 27 -16.5 59.5t30.5 53t59.5 15.5t53.5 -32 q8 -10 12 -24q66 -135 -41 -267q-43 -53 -125 -83q-16 -6 -16 -3z" />
<glyph unicode="&#x202f;" horiz-adv-x="320" />
<glyph unicode="&#x205f;" horiz-adv-x="401" />
<glyph unicode="&#x25fc;" horiz-adv-x="1320" d="M0 0v1321h1321v-1321h-1321z" />
</font>
</defs>
</svg>
